<svg xmlns="http://www.w3.org/2000/svg" height="644pt" version="1.1" viewBox="0 0 644.25045 644" width="644pt">
<g id="surface1">
<path d="M 581.074219 63.050781 C 508.574219 -9.445312 355.925781 -31.527344 262.085938 63.050781 C 173.097656 152.742188 204.085938 237.042969 175.085938 295.042969 C 146.089844 353.039062 117.089844 382.039062 117.089844 382.039062 L 262.085938 527.03125 C 262.085938 527.03125 291.082031 498.03125 349.082031 469.035156 C 407.078125 440.035156 491.382812 471.027344 581.070312 382.039062 C 675.652344 288.199219 653.570312 135.546875 581.074219 63.050781 Z M 581.074219 63.050781 " style=" stroke:none;fill-rule:nonzero;fill:rgb(45.098039%,53.333333%,100%);fill-opacity:1;" />
<path d="M 603.472656 127.125 C 587.296875 127.136719 574.191406 140.261719 574.203125 156.441406 C 574.203125 159.554688 574.703125 162.644531 575.679688 165.601562 C 592.457031 216.304688 591.851562 288.871094 539.839844 340.476562 C 495.433594 384.535156 456.21875 389.339844 410.8125 394.90625 C 381.910156 398.449219 352.019531 402.109375 322.902344 416.667969 C 315.554688 420.34375 308.621094 424 302.101562 427.644531 C 287.96875 435.496094 282.878906 453.316406 290.734375 467.449219 C 298.585938 481.582031 316.40625 486.671875 330.539062 478.816406 C 330.550781 478.8125 330.558594 478.808594 330.566406 478.804688 C 334.207031 476.777344 337.988281 474.742188 341.917969 472.691406 L 341.949219 472.675781 L 342.078125 472.605469 L 342.109375 472.59375 C 342.152344 472.570312 342.195312 472.546875 342.242188 472.523438 L 342.269531 472.507812 L 342.402344 472.441406 L 342.429688 472.425781 L 342.566406 472.351562 L 342.589844 472.34375 L 342.738281 472.265625 L 342.746094 472.261719 C 342.855469 472.207031 342.960938 472.148438 343.070312 472.09375 L 343.109375 472.074219 L 343.226562 472.011719 L 343.285156 471.984375 L 343.378906 471.933594 L 343.457031 471.894531 L 343.53125 471.855469 L 343.613281 471.8125 L 343.6875 471.777344 L 343.773438 471.734375 L 343.84375 471.695312 L 343.929688 471.652344 L 343.996094 471.617188 L 344.085938 471.570312 L 344.140625 471.542969 L 344.246094 471.488281 L 344.261719 471.480469 C 344.398438 471.410156 344.539062 471.335938 344.671875 471.269531 L 344.699219 471.253906 L 344.820312 471.195312 L 344.851562 471.179688 L 344.964844 471.117188 L 345.007812 471.097656 L 345.121094 471.039062 L 345.277344 470.960938 L 345.3125 470.945312 L 345.4375 470.878906 L 345.457031 470.871094 C 345.742188 470.722656 346.035156 470.574219 346.324219 470.429688 L 346.351562 470.414062 L 346.507812 470.335938 L 346.628906 470.273438 L 346.824219 470.175781 L 346.9375 470.113281 L 347.117188 470.023438 C 347.3125 469.925781 347.507812 469.828125 347.703125 469.726562 L 347.707031 469.726562 L 347.851562 469.652344 L 347.863281 469.648438 L 347.984375 469.589844 L 348.027344 469.566406 L 348.136719 469.511719 L 348.1875 469.484375 L 348.28125 469.4375 L 348.355469 469.398438 L 348.441406 469.355469 L 348.515625 469.320312 L 348.601562 469.277344 L 348.683594 469.238281 L 348.761719 469.195312 L 348.851562 469.152344 L 348.921875 469.117188 L 349.082031 469.035156 L 349.1875 468.984375 L 349.21875 468.96875 L 349.300781 468.925781 L 349.324219 468.914062 L 349.429688 468.863281 L 349.453125 468.851562 L 349.535156 468.808594 L 349.566406 468.792969 L 349.65625 468.75 L 349.675781 468.742188 L 349.917969 468.621094 L 350.023438 468.570312 L 350.039062 468.5625 C 350.070312 468.546875 350.097656 468.535156 350.125 468.519531 L 350.164062 468.5 L 350.238281 468.464844 L 350.269531 468.449219 L 350.367188 468.402344 L 350.410156 468.382812 L 350.472656 468.351562 L 350.515625 468.332031 L 350.601562 468.289062 L 350.636719 468.273438 L 350.71875 468.234375 L 350.761719 468.214844 L 350.828125 468.183594 L 350.867188 468.164062 L 350.964844 468.117188 L 350.996094 468.105469 L 351.070312 468.066406 L 351.113281 468.050781 L 351.191406 468.011719 L 351.21875 468 L 351.316406 467.953125 L 351.355469 467.933594 L 351.425781 467.902344 L 351.464844 467.882812 L 351.5625 467.839844 L 351.601562 467.820312 L 351.667969 467.789062 L 351.710938 467.769531 L 351.777344 467.738281 L 351.820312 467.71875 L 351.914062 467.675781 L 351.957031 467.65625 L 352.023438 467.625 L 352.066406 467.605469 L 352.144531 467.570312 L 352.195312 467.546875 L 352.269531 467.511719 L 352.3125 467.492188 L 352.378906 467.464844 L 352.417969 467.445312 L 352.515625 467.402344 L 352.554688 467.382812 L 352.625 467.351562 L 352.667969 467.332031 L 352.738281 467.300781 L 352.78125 467.28125 L 352.871094 467.242188 L 352.914062 467.222656 L 352.980469 467.191406 L 353.019531 467.175781 L 353.121094 467.132812 L 353.226562 467.085938 L 353.269531 467.066406 L 353.339844 467.035156 L 353.378906 467.019531 L 353.472656 466.976562 L 353.519531 466.957031 L 353.582031 466.929688 L 353.628906 466.910156 L 353.707031 466.875 L 353.757812 466.851562 L 353.832031 466.820312 L 353.875 466.800781 L 353.9375 466.773438 L 353.984375 466.753906 L 354.078125 466.710938 L 354.125 466.691406 L 354.183594 466.667969 L 354.234375 466.644531 L 354.296875 466.617188 L 354.367188 466.589844 L 354.433594 466.558594 L 354.488281 466.535156 L 354.539062 466.515625 L 354.59375 466.492188 L 354.667969 466.457031 L 354.734375 466.429688 L 354.84375 466.382812 L 354.902344 466.359375 L 355.042969 466.300781 L 355.089844 466.277344 L 355.148438 466.253906 L 355.199219 466.234375 L 355.265625 466.207031 L 355.335938 466.175781 L 355.402344 466.148438 L 355.449219 466.128906 L 355.511719 466.101562 L 355.558594 466.085938 C 355.585938 466.070312 355.625 466.054688 355.65625 466.042969 L 355.699219 466.027344 L 355.761719 466 L 355.808594 465.980469 L 355.882812 465.949219 L 355.929688 465.929688 L 356.015625 465.894531 L 356.058594 465.878906 L 356.128906 465.847656 L 356.167969 465.832031 L 356.269531 465.792969 L 356.300781 465.777344 L 356.417969 465.730469 L 356.496094 465.703125 L 356.53125 465.6875 L 356.628906 465.648438 L 356.675781 465.628906 L 356.738281 465.605469 L 356.785156 465.585938 L 356.921875 465.53125 L 356.992188 465.503906 L 357.039062 465.484375 L 357.101562 465.460938 L 357.148438 465.441406 L 357.242188 465.40625 L 357.292969 465.386719 L 357.351562 465.363281 L 357.402344 465.339844 L 357.476562 465.3125 L 357.515625 465.296875 L 357.609375 465.261719 L 357.648438 465.246094 L 357.722656 465.214844 L 357.761719 465.203125 L 357.863281 465.160156 L 357.902344 465.148438 L 357.972656 465.121094 L 358.019531 465.101562 L 358.085938 465.074219 L 358.125 465.0625 L 358.226562 465.023438 L 358.269531 465.007812 L 358.335938 464.980469 L 358.378906 464.964844 L 358.472656 464.929688 L 358.515625 464.914062 L 358.589844 464.882812 L 358.632812 464.867188 L 358.707031 464.839844 L 358.746094 464.824219 L 358.84375 464.789062 L 358.886719 464.773438 L 358.957031 464.746094 L 359.085938 464.699219 L 359.113281 464.6875 L 359.210938 464.652344 L 359.253906 464.636719 L 359.324219 464.609375 L 359.367188 464.59375 L 359.46875 464.554688 L 359.507812 464.539062 L 359.578125 464.515625 L 359.621094 464.5 L 359.699219 464.46875 L 359.730469 464.457031 L 359.835938 464.421875 L 359.875 464.40625 L 359.949219 464.378906 L 359.988281 464.363281 L 360.089844 464.328125 L 360.121094 464.316406 L 360.199219 464.285156 L 360.242188 464.269531 L 360.316406 464.242188 L 360.355469 464.230469 L 360.460938 464.191406 L 360.492188 464.179688 L 360.574219 464.152344 L 360.609375 464.136719 L 360.707031 464.101562 L 360.71875 464.097656 L 360.828125 464.058594 L 360.863281 464.046875 L 360.941406 464.019531 L 360.976562 464.003906 L 361.085938 463.96875 L 361.109375 463.960938 C 361.140625 463.949219 361.171875 463.9375 361.199219 463.925781 L 361.230469 463.914062 L 361.328125 463.882812 L 361.34375 463.875 L 361.457031 463.835938 L 361.480469 463.828125 L 361.578125 463.792969 L 361.597656 463.785156 L 361.714844 463.746094 L 361.722656 463.742188 L 361.828125 463.707031 L 361.855469 463.695312 L 361.957031 463.660156 L 362.085938 463.617188 L 362.105469 463.609375 L 362.203125 463.578125 L 362.226562 463.566406 C 362.300781 463.542969 362.382812 463.515625 362.460938 463.488281 L 362.480469 463.480469 L 362.582031 463.449219 L 362.597656 463.441406 L 362.71875 463.402344 L 362.832031 463.363281 L 362.855469 463.355469 C 362.933594 463.328125 363.011719 463.304688 363.089844 463.277344 L 363.109375 463.269531 L 363.210938 463.238281 L 363.226562 463.230469 L 363.347656 463.191406 L 363.464844 463.152344 L 363.484375 463.144531 L 363.597656 463.109375 L 363.601562 463.105469 L 363.726562 463.066406 L 363.730469 463.066406 L 363.84375 463.027344 L 363.859375 463.023438 C 363.941406 462.996094 364.019531 462.96875 364.101562 462.941406 L 364.109375 462.941406 C 364.230469 462.898438 364.359375 462.859375 364.480469 462.820312 L 364.488281 462.816406 C 364.609375 462.777344 364.738281 462.738281 364.863281 462.699219 L 364.863281 462.695312 L 365.113281 462.617188 L 365.117188 462.617188 C 365.246094 462.574219 365.371094 462.535156 365.496094 462.496094 L 365.5 462.496094 C 365.710938 462.429688 365.921875 462.363281 366.132812 462.300781 L 366.136719 462.296875 C 409.265625 449.03125 463.890625 456.097656 523.21875 425.097656 C 525.582031 423.863281 527.949219 422.570312 530.324219 421.214844 C 530.492188 421.117188 530.65625 421.023438 530.828125 420.925781 L 530.839844 420.917969 C 530.921875 420.871094 531 420.824219 531.078125 420.78125 L 531.097656 420.769531 L 531.328125 420.636719 L 531.355469 420.621094 C 531.433594 420.574219 531.515625 420.527344 531.59375 420.480469 L 531.601562 420.476562 C 531.679688 420.433594 531.765625 420.382812 531.84375 420.335938 L 531.855469 420.328125 C 532.027344 420.230469 532.191406 420.132812 532.359375 420.035156 L 532.363281 420.03125 C 532.488281 419.957031 532.617188 419.882812 532.742188 419.808594 C 532.828125 419.757812 532.910156 419.710938 532.996094 419.660156 L 533.003906 419.65625 C 533.089844 419.605469 533.160156 419.5625 533.246094 419.511719 L 533.261719 419.503906 L 533.378906 419.433594 L 533.382812 419.429688 C 533.425781 419.40625 533.460938 419.386719 533.5 419.359375 L 533.515625 419.351562 L 533.757812 419.207031 L 533.765625 419.203125 L 533.886719 419.128906 L 533.898438 419.125 L 534.015625 419.054688 L 534.019531 419.050781 L 534.144531 418.976562 L 534.148438 418.972656 C 534.234375 418.921875 534.308594 418.875 534.394531 418.824219 L 534.410156 418.816406 C 534.492188 418.769531 534.574219 418.71875 534.652344 418.671875 L 534.660156 418.664062 C 534.746094 418.613281 534.820312 418.570312 534.90625 418.519531 L 534.921875 418.507812 C 535.007812 418.457031 535.074219 418.414062 535.160156 418.363281 L 535.175781 418.355469 C 535.25 418.308594 535.332031 418.261719 535.40625 418.214844 L 535.4375 418.195312 L 535.671875 418.054688 L 535.6875 418.042969 L 535.925781 417.898438 L 535.941406 417.886719 L 536.183594 417.738281 L 536.195312 417.730469 C 536.277344 417.683594 536.351562 417.636719 536.433594 417.585938 L 536.453125 417.574219 L 536.570312 417.5 L 536.582031 417.496094 L 536.695312 417.425781 L 536.707031 417.417969 L 536.824219 417.34375 L 536.839844 417.335938 L 536.953125 417.265625 L 536.960938 417.261719 L 537.078125 417.183594 L 537.09375 417.175781 C 537.125 417.15625 537.171875 417.128906 537.203125 417.109375 L 537.21875 417.101562 L 537.335938 417.027344 L 537.351562 417.019531 L 537.59375 416.863281 L 537.597656 416.863281 C 537.683594 416.808594 537.761719 416.757812 537.847656 416.707031 L 537.859375 416.703125 L 537.980469 416.625 L 537.984375 416.621094 L 538.101562 416.546875 L 538.113281 416.539062 L 538.230469 416.464844 L 538.25 416.453125 L 538.355469 416.386719 L 538.375 416.375 L 538.484375 416.304688 L 538.515625 416.289062 L 538.613281 416.226562 L 538.625 416.214844 C 538.664062 416.195312 538.703125 416.167969 538.738281 416.144531 L 538.769531 416.128906 L 538.871094 416.0625 L 538.882812 416.054688 L 538.996094 415.984375 L 539.023438 415.964844 L 539.121094 415.902344 L 539.140625 415.890625 L 539.246094 415.824219 L 539.285156 415.800781 L 539.363281 415.746094 L 539.414062 415.714844 C 539.441406 415.699219 539.46875 415.679688 539.496094 415.664062 L 539.542969 415.632812 L 539.644531 415.570312 L 539.648438 415.566406 C 539.683594 415.542969 539.71875 415.523438 539.753906 415.496094 L 539.789062 415.476562 L 539.898438 415.40625 L 539.910156 415.398438 L 540.011719 415.332031 L 540.046875 415.3125 C 540.085938 415.285156 540.121094 415.261719 540.15625 415.238281 L 540.164062 415.234375 L 540.273438 415.164062 L 540.296875 415.148438 L 540.410156 415.074219 L 540.429688 415.0625 L 540.519531 415.003906 L 540.558594 414.976562 L 540.664062 414.910156 L 540.691406 414.894531 L 540.773438 414.839844 L 540.8125 414.816406 L 540.914062 414.746094 L 540.949219 414.726562 L 541.03125 414.671875 L 541.070312 414.648438 L 541.171875 414.582031 L 541.207031 414.558594 L 541.292969 414.5 L 541.320312 414.484375 L 541.460938 414.390625 L 541.546875 414.335938 L 541.585938 414.3125 L 541.6875 414.246094 L 541.714844 414.226562 L 541.8125 414.164062 L 541.847656 414.140625 L 541.9375 414.082031 L 541.972656 414.058594 L 542.074219 413.992188 L 542.105469 413.96875 L 542.195312 413.914062 L 542.226562 413.890625 L 542.335938 413.820312 L 542.359375 413.804688 L 542.449219 413.746094 L 542.484375 413.722656 L 542.585938 413.652344 L 542.625 413.628906 L 542.707031 413.574219 L 542.738281 413.554688 L 542.84375 413.480469 L 542.875 413.460938 L 542.96875 413.398438 L 542.988281 413.386719 L 543.097656 413.3125 L 543.132812 413.292969 L 543.21875 413.230469 L 543.25 413.214844 L 543.355469 413.144531 L 543.390625 413.117188 L 543.472656 413.066406 L 543.507812 413.042969 L 543.601562 412.976562 L 543.652344 412.945312 L 543.722656 412.898438 L 543.785156 412.855469 L 543.859375 412.804688 L 543.90625 412.773438 L 543.992188 412.714844 L 544.03125 412.691406 L 544.113281 412.632812 L 544.164062 412.601562 L 544.257812 412.539062 L 544.289062 412.515625 L 544.378906 412.457031 L 544.417969 412.429688 L 544.519531 412.363281 L 544.5625 412.335938 L 544.625 412.292969 L 544.675781 412.257812 L 544.769531 412.191406 L 544.820312 412.160156 L 544.882812 412.117188 L 544.929688 412.082031 L 545.03125 412.015625 L 545.070312 411.988281 L 545.136719 411.945312 L 545.1875 411.910156 L 545.285156 411.84375 L 545.324219 411.816406 L 545.398438 411.765625 L 545.441406 411.734375 L 545.539062 411.667969 L 545.585938 411.636719 L 545.652344 411.589844 L 545.695312 411.5625 L 545.792969 411.492188 L 545.839844 411.460938 L 545.914062 411.410156 L 545.964844 411.375 L 546.054688 411.316406 L 546.09375 411.285156 L 546.171875 411.234375 L 546.234375 411.191406 L 546.308594 411.140625 L 546.347656 411.113281 L 546.429688 411.058594 L 546.5625 410.964844 L 546.609375 410.933594 L 546.691406 410.875 L 546.816406 410.789062 L 546.863281 410.757812 L 546.957031 410.6875 L 547 410.660156 L 547.117188 410.578125 L 547.214844 410.511719 L 547.261719 410.476562 L 547.332031 410.429688 L 547.371094 410.402344 L 547.46875 410.332031 L 547.519531 410.300781 L 547.582031 410.253906 L 547.652344 410.207031 L 547.722656 410.15625 L 547.78125 410.113281 L 547.832031 410.082031 L 547.910156 410.027344 L 547.980469 409.976562 L 548.03125 409.941406 L 548.105469 409.886719 L 548.15625 409.847656 L 548.238281 409.792969 L 548.289062 409.757812 L 548.386719 409.6875 L 548.402344 409.675781 L 548.496094 409.609375 L 548.539062 409.578125 L 548.632812 409.515625 L 548.679688 409.480469 L 548.75 409.433594 L 548.804688 409.394531 L 548.894531 409.328125 L 548.9375 409.296875 L 549.007812 409.246094 L 549.054688 409.214844 L 549.152344 409.144531 L 549.199219 409.109375 L 549.257812 409.070312 L 549.316406 409.027344 L 549.410156 408.960938 L 549.453125 408.929688 L 549.523438 408.882812 L 549.570312 408.847656 L 549.664062 408.78125 L 549.714844 408.742188 L 549.773438 408.699219 L 549.863281 408.636719 L 549.917969 408.597656 L 549.976562 408.558594 L 550.09375 408.472656 L 550.179688 408.410156 L 550.230469 408.375 L 550.292969 408.328125 L 550.367188 408.277344 L 550.4375 408.226562 L 550.488281 408.1875 L 550.550781 408.140625 L 550.628906 408.085938 L 550.691406 408.042969 L 550.742188 408.003906 L 550.8125 407.953125 L 550.886719 407.898438 L 550.949219 407.855469 L 550.996094 407.816406 L 551.097656 407.746094 L 551.207031 407.664062 L 551.253906 407.632812 L 551.347656 407.5625 L 551.398438 407.523438 L 551.460938 407.476562 L 551.511719 407.441406 L 551.601562 407.375 L 551.660156 407.332031 L 551.769531 407.253906 L 551.855469 407.191406 L 551.925781 407.140625 L 551.960938 407.113281 L 552.070312 407.03125 L 552.113281 407 L 552.179688 406.953125 L 552.304688 406.859375 L 552.371094 406.808594 L 552.425781 406.769531 L 552.492188 406.71875 L 552.566406 406.664062 L 552.628906 406.617188 L 552.6875 406.574219 L 552.742188 406.535156 L 552.835938 406.464844 L 552.878906 406.433594 L 552.945312 406.382812 L 552.996094 406.347656 L 553.082031 406.28125 L 553.144531 406.234375 L 553.199219 406.191406 L 553.253906 406.152344 L 553.394531 406.046875 L 553.453125 406.003906 L 553.539062 405.941406 L 553.601562 405.894531 L 553.65625 405.851562 L 553.710938 405.8125 L 553.804688 405.738281 L 553.851562 405.703125 L 553.910156 405.660156 L 554.058594 405.550781 L 554.109375 405.511719 L 554.167969 405.46875 L 554.257812 405.398438 L 554.3125 405.355469 L 554.371094 405.3125 L 554.421875 405.277344 L 554.511719 405.207031 L 554.566406 405.164062 L 554.675781 405.082031 L 554.773438 405.007812 L 554.828125 404.96875 L 554.925781 404.890625 L 555.039062 404.808594 L 555.082031 404.773438 L 555.199219 404.6875 L 555.296875 404.613281 L 555.335938 404.582031 L 555.402344 404.53125 L 555.433594 404.507812 L 555.554688 404.414062 L 555.59375 404.386719 L 555.65625 404.335938 L 555.6875 404.3125 L 555.808594 404.21875 L 555.851562 404.1875 C 555.925781 404.128906 556 404.074219 556.074219 404.015625 L 556.101562 403.996094 L 556.21875 403.902344 L 556.253906 403.875 L 556.320312 403.824219 L 556.367188 403.789062 L 556.453125 403.722656 L 556.519531 403.671875 L 556.574219 403.628906 L 556.632812 403.585938 L 556.707031 403.527344 L 556.773438 403.476562 L 556.828125 403.433594 L 556.894531 403.382812 L 556.972656 403.324219 L 557.03125 403.277344 L 557.09375 403.230469 L 557.15625 403.179688 L 557.226562 403.125 L 557.289062 403.074219 L 557.34375 403.03125 L 557.410156 402.984375 L 557.488281 402.917969 L 557.546875 402.875 L 557.605469 402.828125 L 557.679688 402.773438 L 557.75 402.714844 L 557.804688 402.671875 L 557.859375 402.632812 L 557.953125 402.554688 L 558.007812 402.515625 L 558.0625 402.46875 L 558.121094 402.425781 L 558.214844 402.351562 L 558.261719 402.316406 L 558.332031 402.257812 L 558.371094 402.226562 L 558.476562 402.144531 L 558.515625 402.113281 L 558.589844 402.054688 L 558.648438 402.011719 L 558.730469 401.945312 L 558.777344 401.90625 L 558.855469 401.84375 L 558.886719 401.820312 C 558.925781 401.789062 558.953125 401.765625 558.992188 401.734375 L 559.03125 401.703125 L 559.117188 401.636719 L 559.160156 401.601562 L 559.253906 401.523438 L 559.394531 401.417969 L 559.425781 401.390625 L 559.507812 401.324219 L 559.546875 401.292969 L 559.640625 401.21875 L 559.695312 401.175781 L 559.761719 401.121094 L 559.808594 401.082031 C 559.84375 401.054688 559.875 401.03125 559.90625 401.003906 L 559.960938 400.960938 L 560.011719 400.921875 L 560.074219 400.871094 L 560.109375 400.84375 L 560.222656 400.75 L 560.269531 400.714844 L 560.359375 400.640625 L 560.417969 400.59375 L 560.480469 400.542969 L 560.535156 400.5 L 560.582031 400.460938 L 560.675781 400.386719 L 560.738281 400.335938 L 560.789062 400.296875 L 560.871094 400.230469 L 560.9375 400.175781 L 560.996094 400.128906 L 561.046875 400.085938 L 561.140625 400.011719 L 561.191406 399.972656 L 561.253906 399.921875 L 561.3125 399.871094 L 561.390625 399.808594 L 561.453125 399.757812 L 561.511719 399.710938 L 561.585938 399.652344 L 561.652344 399.59375 L 561.707031 399.550781 L 561.769531 399.5 L 561.847656 399.433594 L 561.902344 399.390625 L 561.976562 399.328125 L 562.023438 399.292969 L 562.121094 399.210938 L 562.175781 399.167969 L 562.222656 399.128906 L 562.285156 399.074219 L 562.34375 399.027344 L 562.433594 398.953125 L 562.484375 398.914062 L 562.554688 398.851562 L 562.636719 398.785156 L 562.691406 398.742188 L 562.742188 398.699219 L 562.839844 398.621094 L 562.886719 398.578125 L 562.945312 398.53125 L 563.003906 398.480469 L 563.085938 398.414062 L 563.148438 398.363281 L 563.207031 398.3125 L 563.257812 398.269531 L 563.347656 398.195312 L 563.40625 398.148438 L 563.460938 398.101562 L 563.519531 398.050781 L 563.609375 397.976562 L 563.664062 397.933594 L 563.726562 397.882812 L 563.769531 397.84375 C 563.808594 397.816406 563.839844 397.785156 563.878906 397.757812 L 563.921875 397.722656 L 563.980469 397.671875 L 564.035156 397.625 L 564.132812 397.542969 L 564.179688 397.503906 L 564.242188 397.449219 L 564.269531 397.429688 L 564.398438 397.324219 L 564.433594 397.289062 L 564.496094 397.238281 L 564.585938 397.164062 L 564.644531 397.113281 L 564.699219 397.066406 C 564.730469 397.042969 564.765625 397.011719 564.792969 396.988281 L 564.84375 396.945312 L 564.910156 396.890625 L 564.953125 396.855469 L 565.035156 396.785156 C 565.054688 396.765625 565.082031 396.746094 565.105469 396.726562 L 565.164062 396.675781 L 565.214844 396.632812 L 565.304688 396.554688 L 565.363281 396.507812 L 565.421875 396.457031 L 565.472656 396.414062 L 565.566406 396.335938 L 565.617188 396.292969 L 565.679688 396.238281 L 565.734375 396.191406 L 565.828125 396.113281 L 565.878906 396.070312 L 565.941406 396.015625 L 566.011719 395.953125 L 566.082031 395.894531 L 566.136719 395.847656 L 566.199219 395.796875 L 566.25 395.75 C 566.285156 395.722656 566.316406 395.695312 566.347656 395.667969 L 566.394531 395.628906 L 566.460938 395.570312 L 566.503906 395.535156 C 566.535156 395.507812 566.574219 395.472656 566.605469 395.445312 L 566.660156 395.402344 L 566.714844 395.355469 L 566.808594 395.273438 L 566.917969 395.179688 L 566.984375 395.121094 L 567.070312 395.046875 L 567.1875 394.949219 L 567.230469 394.910156 L 567.328125 394.824219 L 567.375 394.785156 L 567.449219 394.722656 L 567.507812 394.667969 L 567.589844 394.601562 L 567.640625 394.554688 L 567.707031 394.496094 L 567.765625 394.445312 L 567.847656 394.375 L 567.894531 394.332031 L 568.035156 394.207031 L 568.105469 394.148438 L 568.15625 394.101562 L 568.21875 394.050781 L 568.304688 393.976562 L 568.359375 393.925781 L 568.417969 393.875 L 568.472656 393.828125 L 568.566406 393.746094 L 568.621094 393.699219 L 568.671875 393.652344 L 568.773438 393.566406 L 568.816406 393.527344 L 568.882812 393.46875 L 568.929688 393.425781 L 569.027344 393.339844 L 569.074219 393.300781 L 569.148438 393.230469 L 569.1875 393.199219 L 569.292969 393.109375 L 569.332031 393.074219 L 569.414062 393 L 569.445312 392.972656 L 569.550781 392.878906 L 569.59375 392.84375 L 569.675781 392.765625 L 569.707031 392.742188 L 569.8125 392.648438 L 569.847656 392.613281 L 569.949219 392.523438 L 569.960938 392.515625 L 570.070312 392.414062 L 570.105469 392.386719 L 570.210938 392.289062 L 570.234375 392.269531 L 570.332031 392.183594 L 570.371094 392.148438 L 570.582031 391.960938 L 570.636719 391.914062 C 570.667969 391.882812 570.699219 391.859375 570.730469 391.828125 L 570.773438 391.789062 L 570.851562 391.722656 L 570.894531 391.683594 L 570.992188 391.59375 L 571.039062 391.550781 L 571.105469 391.492188 L 571.152344 391.449219 L 571.253906 391.359375 L 571.289062 391.324219 L 571.375 391.25 L 571.410156 391.21875 L 571.515625 391.121094 L 571.550781 391.089844 L 571.628906 391.019531 L 571.671875 390.980469 L 571.765625 390.894531 L 571.816406 390.847656 L 571.886719 390.785156 L 571.945312 390.730469 L 572.03125 390.652344 L 572.078125 390.609375 L 572.148438 390.542969 L 572.210938 390.488281 L 572.285156 390.421875 L 572.335938 390.375 L 572.414062 390.304688 L 572.476562 390.246094 L 572.546875 390.183594 L 572.601562 390.132812 L 572.65625 390.078125 L 572.746094 390 L 572.808594 389.941406 L 572.851562 389.902344 L 572.953125 389.808594 L 572.996094 389.769531 L 573.066406 389.703125 L 573.117188 389.660156 L 573.210938 389.570312 L 573.320312 389.46875 L 573.375 389.421875 L 573.472656 389.332031 L 573.519531 389.289062 L 573.589844 389.222656 L 573.730469 389.09375 L 573.785156 389.042969 L 573.851562 388.980469 L 573.890625 388.945312 L 573.996094 388.847656 L 574.125 388.730469 L 574.152344 388.703125 C 574.191406 388.667969 574.222656 388.640625 574.257812 388.605469 L 574.296875 388.570312 L 574.394531 388.480469 L 574.414062 388.460938 C 574.449219 388.429688 574.484375 388.394531 574.515625 388.367188 L 574.558594 388.328125 L 574.640625 388.25 L 574.703125 388.191406 L 574.773438 388.125 L 574.824219 388.082031 L 574.925781 387.984375 L 574.949219 387.960938 L 575.039062 387.878906 L 575.078125 387.84375 L 575.1875 387.742188 L 575.210938 387.71875 L 575.300781 387.632812 L 575.339844 387.597656 L 575.449219 387.496094 L 575.472656 387.472656 L 575.574219 387.378906 L 575.59375 387.359375 C 575.632812 387.324219 575.671875 387.289062 575.707031 387.253906 L 575.738281 387.222656 C 575.765625 387.199219 575.796875 387.167969 575.824219 387.144531 L 575.863281 387.109375 L 575.96875 387.007812 L 576 386.976562 L 576.089844 386.890625 L 576.117188 386.867188 L 576.226562 386.761719 L 576.261719 386.730469 L 576.347656 386.648438 L 576.394531 386.605469 L 576.488281 386.515625 L 576.527344 386.480469 L 576.621094 386.390625 L 576.648438 386.363281 L 576.746094 386.273438 L 576.785156 386.234375 L 576.871094 386.152344 L 576.929688 386.097656 L 577.003906 386.027344 L 577.050781 385.984375 L 577.152344 385.886719 L 577.191406 385.851562 L 577.265625 385.78125 L 577.308594 385.738281 L 577.410156 385.640625 L 577.449219 385.601562 L 577.535156 385.523438 L 577.566406 385.492188 L 577.675781 385.386719 L 577.707031 385.359375 C 577.738281 385.328125 577.761719 385.304688 577.792969 385.273438 L 577.828125 385.238281 C 577.863281 385.207031 577.898438 385.171875 577.929688 385.140625 L 577.972656 385.097656 C 578.003906 385.074219 578.027344 385.046875 578.054688 385.023438 L 578.089844 384.988281 L 578.195312 384.886719 L 578.230469 384.851562 L 578.328125 384.757812 L 578.34375 384.742188 L 578.457031 384.632812 L 578.496094 384.597656 L 578.585938 384.511719 L 578.609375 384.484375 C 578.648438 384.445312 578.679688 384.417969 578.71875 384.382812 L 578.84375 384.257812 L 578.890625 384.214844 C 578.921875 384.183594 578.941406 384.164062 578.976562 384.132812 L 579.019531 384.089844 C 579.050781 384.058594 579.085938 384.023438 579.121094 383.992188 L 579.152344 383.960938 L 579.242188 383.875 L 579.414062 383.703125 L 579.496094 383.625 L 579.542969 383.582031 L 579.796875 383.328125 L 579.910156 383.21875 L 579.9375 383.191406 L 580.023438 383.109375 L 580.199219 382.933594 L 580.292969 382.84375 L 580.320312 382.816406 C 580.355469 382.785156 580.398438 382.738281 580.433594 382.707031 L 580.460938 382.675781 L 580.550781 382.589844 L 580.722656 382.417969 L 580.824219 382.320312 L 580.839844 382.300781 L 580.957031 382.1875 L 580.984375 382.160156 L 581.101562 382.046875 L 581.222656 381.921875 L 581.253906 381.890625 L 581.363281 381.785156 L 582.066406 381.082031 L 582.074219 381.070312 L 582.1875 380.960938 L 582.222656 380.925781 C 582.261719 380.882812 582.292969 380.851562 582.335938 380.8125 L 582.34375 380.800781 L 582.773438 380.371094 L 582.875 380.265625 L 583.023438 380.117188 L 583.035156 380.101562 C 583.070312 380.070312 583.113281 380.027344 583.144531 379.992188 L 583.179688 379.957031 L 583.285156 379.847656 L 583.453125 379.679688 L 583.550781 379.578125 L 583.578125 379.550781 L 583.695312 379.429688 L 583.726562 379.402344 L 583.824219 379.300781 L 583.851562 379.269531 L 583.992188 379.128906 L 584.097656 379.019531 L 584.125 378.992188 C 584.203125 378.910156 584.285156 378.820312 584.363281 378.742188 L 584.402344 378.703125 L 584.503906 378.597656 L 584.519531 378.582031 L 584.636719 378.460938 L 584.671875 378.425781 L 584.765625 378.328125 L 584.792969 378.296875 L 584.910156 378.175781 L 584.9375 378.148438 L 585.035156 378.046875 L 585.0625 378.015625 L 585.183594 377.890625 L 585.195312 377.875 L 585.304688 377.765625 L 585.335938 377.726562 L 585.429688 377.628906 L 585.457031 377.601562 L 585.570312 377.480469 L 585.601562 377.449219 L 585.703125 377.34375 L 585.726562 377.320312 L 585.84375 377.191406 L 585.863281 377.171875 L 585.964844 377.0625 L 585.992188 377.035156 L 586.113281 376.90625 L 586.121094 376.898438 L 586.234375 376.78125 L 586.261719 376.75 C 586.339844 376.667969 586.421875 376.578125 586.5 376.496094 L 586.53125 376.464844 C 586.5625 376.429688 586.597656 376.390625 586.632812 376.355469 L 586.648438 376.339844 C 586.691406 376.292969 586.726562 376.257812 586.769531 376.210938 L 586.789062 376.1875 L 586.894531 376.074219 L 586.914062 376.054688 C 586.957031 376.007812 586.992188 375.972656 587.035156 375.925781 L 587.050781 375.90625 L 587.160156 375.789062 L 587.179688 375.769531 C 587.253906 375.6875 587.34375 375.59375 587.417969 375.507812 L 587.445312 375.480469 L 587.542969 375.375 L 587.570312 375.347656 C 587.609375 375.304688 587.644531 375.265625 587.683594 375.222656 L 587.710938 375.191406 L 587.804688 375.089844 L 587.832031 375.0625 L 587.945312 374.9375 L 587.972656 374.910156 L 588.0625 374.808594 L 588.097656 374.769531 L 588.210938 374.644531 L 588.21875 374.640625 C 588.257812 374.597656 588.289062 374.5625 588.328125 374.523438 L 588.359375 374.484375 L 588.460938 374.375 L 588.476562 374.359375 L 588.589844 374.234375 L 588.621094 374.199219 L 588.710938 374.101562 L 588.742188 374.070312 L 588.851562 373.945312 L 588.882812 373.914062 L 588.96875 373.8125 L 589.003906 373.777344 C 589.039062 373.738281 589.074219 373.699219 589.113281 373.65625 L 589.136719 373.628906 L 589.230469 373.527344 L 589.261719 373.492188 L 589.363281 373.378906 L 589.378906 373.359375 L 589.488281 373.242188 L 589.527344 373.199219 C 589.550781 373.167969 589.582031 373.136719 589.609375 373.105469 L 589.640625 373.070312 L 589.75 372.949219 L 589.785156 372.910156 L 589.867188 372.816406 L 589.898438 372.78125 C 589.9375 372.738281 589.976562 372.695312 590.011719 372.652344 L 590.027344 372.640625 L 590.128906 372.527344 L 590.15625 372.492188 L 590.269531 372.363281 L 590.273438 372.363281 L 590.386719 372.234375 L 590.414062 372.207031 L 590.515625 372.089844 L 590.527344 372.078125 L 590.640625 371.949219 L 590.765625 371.808594 L 590.785156 371.785156 L 590.898438 371.65625 L 590.921875 371.628906 L 591.015625 371.523438 L 591.042969 371.492188 C 591.078125 371.453125 591.117188 371.40625 591.15625 371.363281 L 591.167969 371.351562 C 591.199219 371.316406 591.238281 371.269531 591.269531 371.234375 L 591.296875 371.203125 C 591.371094 371.117188 591.453125 371.027344 591.523438 370.941406 L 591.550781 370.914062 L 591.640625 370.808594 L 591.667969 370.777344 L 591.78125 370.648438 L 591.796875 370.628906 L 591.894531 370.515625 L 591.917969 370.488281 L 592.035156 370.355469 L 592.042969 370.347656 L 592.148438 370.226562 L 592.171875 370.195312 C 592.246094 370.113281 592.328125 370.019531 592.398438 369.933594 L 592.421875 369.90625 L 592.523438 369.789062 L 592.535156 369.773438 C 592.574219 369.730469 592.613281 369.683594 592.648438 369.644531 L 592.671875 369.617188 L 592.769531 369.503906 L 592.785156 369.484375 L 592.898438 369.351562 L 592.914062 369.332031 L 593.011719 369.21875 L 593.039062 369.1875 C 593.074219 369.144531 593.113281 369.097656 593.148438 369.054688 C 593.1875 369.015625 593.222656 368.96875 593.257812 368.929688 L 593.289062 368.894531 L 593.382812 368.785156 L 593.402344 368.761719 L 593.507812 368.632812 L 593.539062 368.597656 L 593.617188 368.503906 L 593.652344 368.464844 C 593.683594 368.425781 593.726562 368.378906 593.757812 368.34375 L 593.785156 368.308594 L 593.867188 368.207031 L 593.902344 368.167969 L 594.007812 368.046875 L 594.027344 368.019531 L 594.113281 367.917969 L 594.148438 367.875 C 594.179688 367.839844 594.214844 367.796875 594.246094 367.761719 L 594.257812 367.746094 L 594.363281 367.621094 L 594.398438 367.582031 L 594.480469 367.484375 L 594.503906 367.449219 L 594.609375 367.328125 L 594.640625 367.285156 L 594.71875 367.191406 L 594.753906 367.152344 L 594.859375 367.027344 L 594.875 367.007812 L 594.964844 366.894531 L 594.996094 366.859375 C 595.027344 366.820312 595.0625 366.777344 595.09375 366.742188 L 595.109375 366.722656 L 595.210938 366.597656 L 595.238281 366.5625 L 595.328125 366.457031 L 595.347656 366.429688 C 595.382812 366.390625 595.421875 366.34375 595.457031 366.300781 L 595.480469 366.269531 L 595.566406 366.167969 L 595.597656 366.128906 C 595.632812 366.089844 595.664062 366.046875 595.699219 366.003906 L 595.722656 365.976562 L 595.804688 365.875 L 595.835938 365.835938 C 595.871094 365.792969 595.90625 365.75 595.941406 365.707031 L 595.957031 365.691406 C 595.984375 365.652344 596.019531 365.617188 596.046875 365.578125 L 596.082031 365.535156 L 596.171875 365.429688 L 596.1875 365.40625 C 596.222656 365.363281 596.253906 365.324219 596.289062 365.28125 L 596.324219 365.238281 L 596.402344 365.144531 L 596.429688 365.105469 L 596.53125 364.984375 L 596.5625 364.945312 L 596.640625 364.851562 L 596.675781 364.808594 L 596.773438 364.683594 L 596.792969 364.660156 C 596.820312 364.625 596.851562 364.585938 596.882812 364.550781 L 596.914062 364.511719 L 596.996094 364.40625 L 597.019531 364.378906 L 597.117188 364.253906 L 597.152344 364.210938 L 597.226562 364.121094 L 597.261719 364.074219 L 597.359375 363.953125 L 597.394531 363.910156 L 597.460938 363.824219 L 597.5 363.777344 L 597.597656 363.65625 L 597.628906 363.617188 L 597.699219 363.527344 L 597.738281 363.476562 C 597.773438 363.433594 597.796875 363.402344 597.832031 363.359375 L 597.839844 363.351562 C 597.875 363.308594 597.902344 363.269531 597.9375 363.226562 L 597.972656 363.179688 L 598.050781 363.082031 L 598.078125 363.050781 L 598.179688 362.921875 L 598.207031 362.886719 L 598.285156 362.785156 L 598.316406 362.75 L 598.414062 362.625 L 598.445312 362.585938 L 598.519531 362.488281 L 598.550781 362.449219 L 598.648438 362.324219 L 598.667969 362.300781 L 598.753906 362.1875 L 598.785156 362.148438 L 598.867188 362.046875 L 598.890625 362.011719 C 598.925781 361.96875 598.953125 361.929688 598.988281 361.886719 L 599.019531 361.847656 L 599.09375 361.753906 L 599.125 361.710938 C 599.152344 361.675781 599.191406 361.625 599.21875 361.585938 L 599.253906 361.542969 L 599.320312 361.457031 L 599.363281 361.40625 C 599.394531 361.363281 599.425781 361.324219 599.457031 361.28125 L 599.472656 361.261719 C 599.503906 361.222656 599.527344 361.1875 599.558594 361.152344 L 599.675781 360.996094 L 599.691406 360.976562 L 599.789062 360.847656 L 599.824219 360.804688 L 599.898438 360.710938 L 599.925781 360.671875 L 600.019531 360.546875 L 600.054688 360.503906 L 600.125 360.410156 L 600.160156 360.367188 L 600.253906 360.246094 L 600.28125 360.207031 L 600.359375 360.105469 L 600.386719 360.070312 L 600.585938 359.804688 L 600.617188 359.765625 C 600.644531 359.726562 600.671875 359.695312 600.699219 359.65625 L 600.71875 359.632812 L 600.816406 359.5 L 600.84375 359.464844 L 600.917969 359.367188 L 600.949219 359.324219 C 600.980469 359.285156 601.015625 359.234375 601.046875 359.199219 L 601.074219 359.160156 L 601.140625 359.070312 L 601.179688 359.015625 L 601.269531 358.898438 L 601.292969 358.867188 L 601.371094 358.761719 L 601.410156 358.710938 L 601.476562 358.621094 L 601.507812 358.582031 L 601.597656 358.457031 L 601.636719 358.410156 L 601.703125 358.316406 L 601.734375 358.277344 C 601.761719 358.238281 601.800781 358.1875 601.828125 358.152344 L 601.859375 358.109375 L 601.929688 358.011719 L 601.960938 357.972656 L 602.054688 357.847656 L 602.082031 357.808594 L 602.152344 357.714844 L 602.1875 357.664062 L 602.265625 357.558594 L 602.285156 357.535156 C 602.316406 357.488281 602.347656 357.449219 602.378906 357.40625 L 602.410156 357.363281 L 602.480469 357.265625 L 602.511719 357.226562 L 602.605469 357.097656 L 602.632812 357.0625 L 602.703125 356.960938 L 602.734375 356.921875 L 602.828125 356.792969 L 602.851562 356.765625 L 602.925781 356.660156 L 603.054688 356.488281 L 603.058594 356.484375 L 603.152344 356.351562 L 603.179688 356.316406 L 603.261719 356.203125 L 603.277344 356.175781 C 603.3125 356.132812 603.339844 356.09375 603.371094 356.046875 L 603.402344 356.003906 L 603.472656 355.90625 L 603.5 355.867188 L 603.59375 355.742188 L 603.625 355.695312 L 603.691406 355.605469 L 603.726562 355.554688 L 603.804688 355.445312 L 603.84375 355.394531 L 603.910156 355.300781 L 603.945312 355.25 L 604.011719 355.15625 L 604.042969 355.113281 L 604.132812 354.992188 L 604.167969 354.941406 L 604.265625 354.804688 L 604.347656 354.683594 L 604.382812 354.636719 L 604.445312 354.550781 L 604.484375 354.496094 L 604.566406 354.378906 L 604.605469 354.324219 L 604.660156 354.25 L 604.707031 354.183594 L 604.757812 354.105469 L 604.816406 354.023438 L 604.878906 353.933594 L 604.921875 353.875 L 604.976562 353.796875 L 605.015625 353.746094 L 605.097656 353.628906 L 605.140625 353.566406 L 605.191406 353.492188 L 605.234375 353.433594 L 605.316406 353.316406 L 605.355469 353.261719 L 605.410156 353.183594 L 605.449219 353.125 L 605.515625 353.03125 L 605.5625 352.964844 L 605.628906 352.867188 L 605.664062 352.816406 L 605.726562 352.722656 L 605.757812 352.683594 L 605.84375 352.558594 L 605.875 352.511719 L 605.9375 352.421875 L 605.972656 352.367188 L 606.058594 352.246094 L 606.085938 352.203125 L 606.148438 352.113281 L 606.183594 352.0625 L 606.257812 351.957031 L 606.304688 351.890625 L 606.359375 351.808594 L 606.402344 351.742188 L 606.457031 351.664062 L 606.492188 351.617188 C 606.523438 351.570312 606.542969 351.539062 606.574219 351.496094 L 606.609375 351.441406 L 606.671875 351.347656 L 606.703125 351.304688 C 606.730469 351.265625 606.761719 351.21875 606.789062 351.179688 L 606.820312 351.132812 L 606.882812 351.042969 L 606.914062 350.996094 L 607 350.871094 L 607.09375 350.730469 L 607.128906 350.679688 L 607.191406 350.589844 L 607.238281 350.519531 L 607.300781 350.421875 L 607.335938 350.371094 L 607.398438 350.28125 L 607.429688 350.230469 L 607.511719 350.109375 L 607.546875 350.054688 L 607.601562 349.976562 L 607.757812 349.742188 L 607.808594 349.664062 L 607.851562 349.601562 L 607.917969 349.5 L 607.953125 349.449219 L 608.015625 349.355469 L 608.058594 349.289062 L 608.109375 349.214844 L 608.226562 349.039062 L 608.265625 348.976562 L 608.316406 348.902344 L 608.433594 348.726562 L 608.46875 348.667969 L 608.5625 348.527344 L 608.621094 348.4375 L 608.675781 348.351562 L 608.726562 348.277344 L 608.769531 348.214844 L 608.816406 348.140625 C 608.839844 348.105469 608.859375 348.070312 608.886719 348.035156 L 608.933594 347.964844 L 608.976562 347.898438 L 609.023438 347.828125 L 609.0625 347.761719 L 609.136719 347.648438 L 609.183594 347.578125 L 609.222656 347.515625 L 609.273438 347.445312 L 609.320312 347.367188 C 609.347656 347.332031 609.363281 347.300781 609.386719 347.265625 L 609.425781 347.203125 L 609.476562 347.128906 L 609.511719 347.070312 L 609.59375 346.945312 L 609.632812 346.886719 L 609.679688 346.808594 L 609.714844 346.753906 L 609.800781 346.621094 L 609.835938 346.570312 L 609.882812 346.496094 L 609.921875 346.433594 L 609.96875 346.363281 L 610.019531 346.285156 L 610.085938 346.179688 L 610.125 346.117188 L 610.167969 346.050781 L 610.214844 345.980469 L 610.292969 345.855469 L 610.324219 345.804688 L 610.375 345.726562 L 610.40625 345.675781 L 610.503906 345.523438 L 610.523438 345.488281 L 610.578125 345.410156 L 610.609375 345.355469 L 610.660156 345.277344 L 610.730469 345.167969 L 610.777344 345.089844 L 610.8125 345.039062 L 610.859375 344.957031 L 610.894531 344.90625 L 610.980469 344.769531 L 611.011719 344.71875 L 611.0625 344.636719 L 611.089844 344.59375 C 611.128906 344.535156 611.160156 344.484375 611.195312 344.425781 L 611.210938 344.40625 L 611.265625 344.316406 L 611.292969 344.269531 C 611.351562 344.179688 611.40625 344.085938 611.464844 343.996094 L 611.492188 343.953125 L 611.542969 343.871094 L 611.566406 343.832031 L 611.664062 343.675781 L 611.691406 343.628906 L 611.742188 343.550781 L 611.777344 343.488281 L 611.851562 343.375 L 611.890625 343.308594 L 611.9375 343.234375 L 611.972656 343.175781 L 612.046875 343.050781 L 612.089844 342.988281 L 612.132812 342.914062 L 612.171875 342.851562 L 612.214844 342.78125 L 612.273438 342.683594 L 612.324219 342.601562 L 612.367188 342.53125 L 612.410156 342.457031 L 612.453125 342.390625 L 612.519531 342.28125 L 612.5625 342.214844 L 612.605469 342.140625 L 612.644531 342.078125 C 612.671875 342.03125 612.695312 341.996094 612.722656 341.949219 L 612.753906 341.894531 L 612.800781 341.816406 L 612.835938 341.761719 L 612.878906 341.6875 L 612.925781 341.609375 L 612.996094 341.496094 L 613.027344 341.441406 L 613.074219 341.363281 L 613.105469 341.3125 L 613.191406 341.167969 L 613.21875 341.121094 L 613.265625 341.039062 L 613.300781 340.988281 L 613.375 340.859375 L 613.414062 340.792969 L 613.460938 340.71875 L 613.488281 340.671875 C 613.542969 340.578125 613.597656 340.488281 613.652344 340.394531 L 613.683594 340.347656 L 613.734375 340.261719 L 613.742188 340.242188 L 613.871094 340.027344 L 613.921875 339.9375 L 613.945312 339.894531 C 613.980469 339.839844 614.011719 339.789062 614.042969 339.734375 L 614.0625 339.703125 L 614.113281 339.609375 L 614.136719 339.578125 C 614.191406 339.480469 614.25 339.386719 614.304688 339.289062 L 614.328125 339.25 L 614.378906 339.164062 L 614.398438 339.125 C 614.429688 339.074219 614.460938 339.023438 614.488281 338.972656 L 614.519531 338.921875 L 614.566406 338.839844 L 614.589844 338.792969 C 614.617188 338.75 614.652344 338.691406 614.679688 338.644531 L 614.707031 338.597656 L 614.753906 338.515625 L 614.78125 338.46875 C 614.8125 338.414062 614.839844 338.367188 614.871094 338.3125 L 614.890625 338.277344 L 614.941406 338.191406 L 614.96875 338.148438 C 615.019531 338.054688 615.074219 337.957031 615.128906 337.867188 L 615.15625 337.820312 L 615.203125 337.738281 L 615.226562 337.691406 L 615.316406 337.539062 L 615.339844 337.496094 L 615.390625 337.410156 L 615.417969 337.363281 L 615.496094 337.222656 L 615.527344 337.171875 L 615.578125 337.082031 L 615.597656 337.046875 C 615.652344 336.949219 615.707031 336.851562 615.761719 336.753906 L 615.785156 336.71875 L 615.835938 336.628906 L 615.839844 336.617188 C 615.875 336.558594 615.910156 336.492188 615.945312 336.433594 L 615.96875 336.386719 L 616.019531 336.300781 L 616.039062 336.269531 C 616.070312 336.207031 616.101562 336.152344 616.136719 336.09375 L 616.152344 336.066406 L 616.199219 335.980469 L 616.226562 335.933594 L 616.328125 335.75 L 616.335938 335.738281 L 616.382812 335.652344 L 616.410156 335.605469 L 616.457031 335.519531 L 616.46875 335.496094 L 616.566406 335.324219 L 616.589844 335.28125 L 616.640625 335.191406 L 616.652344 335.164062 C 616.6875 335.101562 616.722656 335.042969 616.757812 334.980469 L 616.765625 334.960938 L 616.820312 334.859375 L 616.835938 334.839844 L 617.003906 334.527344 L 617.015625 334.507812 C 617.070312 334.40625 617.132812 334.296875 617.1875 334.195312 L 617.195312 334.179688 C 617.253906 334.074219 617.3125 333.96875 617.371094 333.859375 L 617.378906 333.847656 L 617.433594 333.75 L 617.445312 333.722656 L 617.554688 333.527344 L 617.558594 333.515625 L 617.613281 333.417969 L 617.625 333.394531 C 617.679688 333.292969 617.738281 333.183594 617.792969 333.082031 L 617.800781 333.066406 C 617.855469 332.964844 617.914062 332.859375 617.96875 332.757812 L 617.980469 332.730469 C 618 332.699219 618.019531 332.664062 618.035156 332.628906 L 618.042969 332.621094 L 618.152344 332.417969 L 618.210938 332.300781 L 618.226562 332.277344 C 618.28125 332.175781 618.332031 332.078125 618.386719 331.976562 L 618.40625 331.941406 C 618.460938 331.839844 618.515625 331.738281 618.570312 331.636719 L 618.578125 331.617188 L 618.632812 331.515625 L 618.636719 331.503906 L 618.742188 331.304688 L 618.753906 331.28125 L 618.808594 331.183594 L 618.820312 331.164062 C 618.871094 331.058594 618.925781 330.957031 618.980469 330.851562 L 618.996094 330.828125 L 619.15625 330.515625 L 619.167969 330.5 C 619.222656 330.394531 619.277344 330.289062 619.332031 330.183594 L 619.34375 330.164062 L 619.394531 330.058594 L 619.398438 330.054688 C 619.457031 329.945312 619.511719 329.835938 619.566406 329.730469 L 619.578125 329.710938 C 619.628906 329.609375 619.6875 329.496094 619.738281 329.394531 L 619.75 329.375 C 619.804688 329.273438 619.859375 329.160156 619.914062 329.058594 L 619.921875 329.042969 C 619.941406 329.007812 619.957031 328.976562 619.976562 328.9375 C 619.980469 328.929688 619.972656 328.941406 619.976562 328.933594 C 620.015625 328.859375 620.050781 328.789062 620.089844 328.714844 C 620.09375 328.710938 620.089844 328.714844 620.09375 328.710938 L 620.144531 328.605469 L 620.15625 328.585938 C 620.210938 328.480469 620.261719 328.378906 620.316406 328.273438 L 620.328125 328.25 C 620.378906 328.144531 620.4375 328.035156 620.488281 327.933594 L 620.492188 327.917969 C 620.570312 327.769531 620.640625 327.628906 620.71875 327.476562 L 620.722656 327.464844 C 620.777344 327.359375 620.832031 327.246094 620.886719 327.136719 L 620.890625 327.132812 C 620.945312 327.019531 621 326.917969 621.054688 326.804688 L 621.058594 326.792969 C 621.246094 326.417969 621.425781 326.054688 621.613281 325.675781 L 621.617188 325.664062 C 649.515625 268.726562 649.734375 202.9375 631.292969 147.210938 C 627.328125 135.226562 616.128906 127.132812 603.507812 127.125 Z M 603.472656 127.125 " style=" stroke:none;fill-rule:nonzero;fill:rgb(29.803922%,40.392157%,100%);fill-opacity:1;" />
<path d="M 521.925781 63.648438 C 464.386719 6.113281 354.445312 22.769531 276.359375 100.855469 C 198.273438 178.941406 181.617188 288.882812 239.152344 346.421875 C 296.691406 403.957031 406.632812 387.300781 484.71875 309.214844 C 562.804688 231.128906 579.460938 121.1875 521.925781 63.648438 Z M 521.925781 63.648438 " style=" stroke:none;fill-rule:nonzero;fill:rgb(58.823529%,65.098039%,100%);fill-opacity:1;" />
<path d="M 418.007812 29.398438 C 380.929688 29.398438 327.375 38.804688 282.863281 83.65625 L 282.71875 83.804688 L 282.6875 83.835938 C 282.648438 83.871094 282.613281 83.910156 282.574219 83.949219 L 282.519531 84.003906 C 282.492188 84.03125 282.457031 84.066406 282.429688 84.09375 L 282.371094 84.152344 L 282.289062 84.238281 L 282.222656 84.300781 L 282.140625 84.386719 L 282.082031 84.445312 L 282 84.53125 L 281.9375 84.59375 L 281.855469 84.679688 L 281.648438 84.886719 L 281.570312 84.96875 L 281.507812 85.03125 L 281.425781 85.117188 L 281.363281 85.179688 L 281.277344 85.269531 L 281.222656 85.324219 C 281.195312 85.355469 281.164062 85.386719 281.132812 85.417969 L 281.078125 85.472656 C 280.984375 85.570312 280.890625 85.667969 280.796875 85.761719 L 280.773438 85.785156 C 280.730469 85.828125 280.695312 85.867188 280.652344 85.914062 L 280.617188 85.945312 L 280.515625 86.054688 L 280.457031 86.113281 C 280.429688 86.144531 280.398438 86.175781 280.371094 86.203125 L 280.316406 86.261719 L 280.230469 86.347656 L 280.175781 86.40625 L 280.085938 86.496094 L 280.035156 86.554688 L 279.949219 86.640625 L 279.890625 86.703125 L 279.808594 86.789062 L 279.753906 86.847656 C 279.726562 86.875 279.695312 86.910156 279.667969 86.9375 L 279.613281 86.992188 L 279.523438 87.085938 L 279.472656 87.140625 L 279.390625 87.226562 L 279.332031 87.289062 C 279.304688 87.316406 279.269531 87.351562 279.242188 87.382812 L 279.195312 87.433594 L 279.070312 87.5625 L 279.058594 87.574219 C 278.960938 87.675781 278.871094 87.773438 278.773438 87.875 L 278.757812 87.890625 C 278.71875 87.933594 278.675781 87.980469 278.636719 88.019531 L 278.609375 88.050781 L 278.496094 88.167969 L 278.457031 88.207031 L 278.363281 88.3125 L 278.316406 88.363281 L 278.226562 88.453125 L 278.171875 88.511719 L 278.085938 88.605469 L 278.039062 88.65625 L 277.949219 88.75 L 277.898438 88.804688 L 277.8125 88.898438 L 277.761719 88.953125 L 277.675781 89.042969 L 277.625 89.097656 L 277.53125 89.195312 L 277.488281 89.242188 L 277.390625 89.347656 L 277.351562 89.390625 L 277.246094 89.503906 L 277.21875 89.53125 C 277.175781 89.578125 277.136719 89.621094 277.097656 89.664062 L 277.082031 89.679688 C 276.992188 89.777344 276.898438 89.875 276.808594 89.972656 L 276.777344 90.007812 L 276.671875 90.121094 L 276.636719 90.15625 C 276.605469 90.195312 276.570312 90.230469 276.535156 90.269531 L 276.5 90.308594 L 276.398438 90.417969 L 276.363281 90.457031 L 276.265625 90.558594 L 276.21875 90.609375 L 276.132812 90.707031 L 276.085938 90.757812 L 276 90.847656 L 275.949219 90.90625 L 275.863281 91 L 275.816406 91.050781 L 275.726562 91.148438 L 275.683594 91.195312 L 275.582031 91.308594 L 275.554688 91.339844 L 275.433594 91.472656 L 275.421875 91.484375 C 275.238281 91.683594 275.0625 91.878906 274.882812 92.078125 L 274.863281 92.097656 L 274.746094 92.222656 L 274.726562 92.25 C 274.6875 92.289062 274.652344 92.328125 274.617188 92.371094 L 274.589844 92.402344 L 274.484375 92.519531 L 274.457031 92.546875 L 274.351562 92.664062 L 274.320312 92.699219 L 274.21875 92.8125 L 274.1875 92.847656 L 274.089844 92.957031 L 274.054688 92.996094 C 274.019531 93.035156 273.984375 93.070312 273.953125 93.109375 L 273.925781 93.140625 L 273.824219 93.253906 L 273.792969 93.289062 C 273.753906 93.332031 273.71875 93.375 273.675781 93.417969 L 273.664062 93.429688 C 273.445312 93.675781 273.226562 93.921875 273.007812 94.171875 L 272.984375 94.195312 L 272.878906 94.320312 L 272.855469 94.34375 L 272.753906 94.460938 L 272.714844 94.503906 L 272.589844 94.644531 L 272.492188 94.757812 L 272.464844 94.789062 C 272.429688 94.828125 272.394531 94.871094 272.359375 94.90625 L 272.335938 94.9375 C 272.296875 94.976562 272.269531 95.011719 272.234375 95.050781 L 272.207031 95.085938 L 272.101562 95.203125 L 272.078125 95.230469 L 271.964844 95.363281 L 271.953125 95.375 C 271.691406 95.675781 271.4375 95.96875 271.179688 96.265625 L 271.171875 96.277344 L 271.054688 96.414062 L 271.042969 96.425781 L 270.925781 96.5625 L 270.910156 96.578125 L 270.800781 96.707031 L 270.785156 96.726562 C 270.746094 96.769531 270.710938 96.8125 270.671875 96.855469 L 270.65625 96.875 C 270.617188 96.917969 270.578125 96.964844 270.542969 97.007812 L 270.535156 97.019531 C 270.492188 97.070312 270.453125 97.109375 270.410156 97.160156 L 270.40625 97.164062 C 270.066406 97.5625 269.734375 97.957031 269.398438 98.355469 L 269.394531 98.359375 C 269.351562 98.410156 269.316406 98.453125 269.273438 98.503906 L 269.269531 98.511719 L 269.152344 98.648438 L 269.140625 98.664062 L 269.027344 98.800781 L 269.019531 98.808594 C 268.980469 98.855469 268.941406 98.902344 268.902344 98.949219 L 268.894531 98.957031 L 268.773438 99.101562 C 268.398438 99.546875 268.03125 99.996094 267.664062 100.441406 L 267.660156 100.441406 L 267.542969 100.589844 L 267.539062 100.59375 L 267.421875 100.738281 L 267.417969 100.742188 C 267.335938 100.839844 267.257812 100.933594 267.175781 101.035156 L 267.175781 101.039062 C 266.691406 101.628906 266.210938 102.226562 265.738281 102.816406 L 265.730469 102.824219 L 265.617188 102.96875 C 254.105469 117.230469 244.71875 133.078125 237.75 150.027344 L 237.746094 150.03125 C 237.511719 150.601562 237.285156 151.171875 237.058594 151.738281 L 237.054688 151.753906 L 237 151.882812 L 236.996094 151.894531 L 236.945312 152.023438 L 236.941406 152.035156 L 236.886719 152.167969 L 236.886719 152.175781 L 236.832031 152.3125 L 236.832031 152.316406 C 236.679688 152.699219 236.535156 153.074219 236.386719 153.453125 L 236.382812 153.464844 L 236.34375 153.574219 C 230.535156 168.664062 238.0625 185.597656 253.148438 191.40625 C 268.238281 197.210938 285.175781 189.6875 290.984375 174.597656 C 297.855469 156.761719 308.484375 140.96875 324.429688 124.894531 C 348.761719 100.375 380.246094 87.945312 418.015625 87.945312 C 434.183594 87.945312 447.289062 74.839844 447.289062 58.671875 C 447.289062 42.503906 434.171875 29.398438 418.007812 29.398438 Z M 418.007812 29.398438 " style=" stroke:none;fill-rule:nonzero;fill:rgb(92.156863%,93.72549%,100%);fill-opacity:1;" />
<path d="M 58.546875 497.761719 L 18.1875 538.117188 C 6.542969 549.761719 0 565.558594 0 582.027344 C 0 616.320312 27.800781 644.121094 62.097656 644.121094 C 78.566406 644.121094 94.359375 637.582031 106.007812 625.933594 L 146.363281 585.578125 Z M 58.546875 497.761719 " style=" stroke:none;fill-rule:nonzero;fill:rgb(20%,32.156863%,49.019608%);fill-opacity:1;" />
<path d="M 131.21875 600.71875 C 130.425781 599.769531 130.109375 598.59375 129.214844 597.703125 L 99.941406 568.429688 C 83.777344 552.261719 57.566406 552.261719 41.398438 568.429688 C 25.230469 584.597656 25.230469 610.804688 41.398438 626.972656 L 58.148438 643.722656 C 59.480469 643.808594 60.746094 644.125 62.097656 644.125 C 78.566406 644.125 94.359375 637.582031 106.007812 625.933594 Z M 131.21875 600.71875 " style=" stroke:none;fill-rule:nonzero;fill:rgb(8.627451%,22.352941%,41.176471%);fill-opacity:1;" />
<path d="M 29.269531 409.941406 L 87.8125 351.398438 L 292.71875 556.304688 L 234.175781 614.847656 Z M 29.269531 409.941406 " style=" stroke:none;fill-rule:nonzero;fill:rgb(80%,83.137255%,100%);fill-opacity:1;" />
<path d="M 123.152344 416.003906 C 131.238281 407.921875 144.34375 407.921875 152.425781 416.003906 L 286.664062 550.242188 C 294.746094 558.328125 294.746094 571.433594 286.664062 579.515625 C 278.578125 587.597656 265.472656 587.597656 257.390625 579.515625 L 123.152344 445.277344 C 115.070312 437.195312 115.070312 424.085938 123.152344 416.003906 Z M 123.152344 416.003906 " style=" stroke:none;fill-rule:nonzero;fill:rgb(64.313725%,69.411765%,100%);fill-opacity:1;" />
<path d="M 34.296875 434.191406 L 17.148438 451.339844 C -5.714844 474.203125 -5.714844 511.269531 17.148438 534.132812 L 109.988281 626.976562 C 132.851562 649.839844 169.921875 649.839844 192.785156 626.976562 L 209.929688 609.828125 Z M 34.296875 434.191406 " style=" stroke:none;fill-rule:nonzero;fill:rgb(80%,83.137255%,100%);fill-opacity:1;" />
<path d="M 75.691406 304.976562 C 91.859375 288.808594 118.070312 288.808594 134.238281 304.976562 L 339.144531 509.886719 C 355.3125 526.050781 355.3125 552.265625 339.144531 568.429688 C 322.980469 584.597656 296.765625 584.597656 280.601562 568.429688 L 75.691406 363.523438 C 59.527344 347.355469 59.527344 321.144531 75.691406 304.976562 Z M 75.691406 304.976562 " style=" stroke:none;fill-rule:nonzero;fill:rgb(87.45098%,89.803922%,100%);fill-opacity:1;" />
<path d="M 12.125 392.792969 C 28.292969 376.628906 54.503906 376.628906 70.671875 392.792969 L 251.328125 573.453125 C 267.496094 589.617188 267.496094 615.832031 251.328125 631.996094 C 235.160156 648.164062 208.949219 648.164062 192.78125 631.996094 L 12.125 451.339844 C -4.042969 435.171875 -4.042969 408.960938 12.125 392.792969 Z M 12.125 392.792969 " style=" stroke:none;fill-rule:nonzero;fill:rgb(87.45098%,89.803922%,100%);fill-opacity:1;" />
<path d="M 387.453125 87.945312 C 367.46875 87.945312 351.269531 104.144531 351.269531 124.125 L 351.269531 146.488281 L 195.578125 8.5625 C 190.175781 3.160156 182.847656 0.125 175.207031 0.125 C 159.296875 0.125 146.402344 13.023438 146.402344 28.933594 C 146.402344 33.40625 147.441406 37.816406 149.441406 41.816406 L 282.726562 272.851562 C 288.855469 285.109375 301.382812 292.851562 315.089844 292.851562 C 335.070312 292.851562 351.269531 276.652344 351.269531 256.667969 L 351.269531 234.304688 L 506.964844 372.230469 C 512.367188 377.632812 519.691406 380.667969 527.332031 380.667969 C 543.242188 380.667969 556.140625 367.773438 556.140625 351.859375 C 556.140625 347.390625 555.101562 342.976562 553.101562 338.976562 L 419.816406 107.945312 C 413.6875 95.6875 401.160156 87.945312 387.453125 87.945312 Z M 387.453125 87.945312 " style=" stroke:none;fill-rule:nonzero;fill:rgb(100%,74.509804%,0%);fill-opacity:1;" />
<path d="M 167.484375 67.414062 L 285.414062 279.691406 C 289.925781 287.8125 298.488281 292.851562 307.78125 292.851562 C 321.914062 292.851562 333.371094 281.394531 333.371094 267.261719 C 333.371094 262.914062 332.261719 258.636719 330.152344 254.835938 L 212.21875 42.558594 C 207.707031 34.4375 199.144531 29.398438 189.851562 29.398438 C 175.71875 29.398438 164.261719 40.855469 164.261719 54.988281 C 164.261719 59.335938 165.371094 63.613281 167.484375 67.414062 Z M 167.484375 67.414062 " style=" stroke:none;fill-rule:nonzero;fill:rgb(100%,63.921569%,0%);fill-opacity:1;" />
<path d="M 288.421875 91.980469 C 279.582031 91.972656 271.21875 95.976562 265.6875 102.871094 C 265.636719 102.9375 265.585938 103 265.53125 103.070312 C 265.195312 103.488281 264.863281 103.910156 264.53125 104.332031 L 264.519531 104.347656 C 264.476562 104.402344 264.429688 104.460938 264.386719 104.515625 C 254.539062 117.339844 256.949219 135.714844 269.769531 145.5625 C 282.476562 155.324219 300.667969 153.054688 310.589844 140.472656 L 311.320312 139.550781 C 321.34375 126.851562 319.230469 108.4375 306.582031 98.347656 C 301.425781 94.222656 295.019531 91.976562 288.421875 91.980469 Z M 288.421875 91.980469 " style=" stroke:none;fill-rule:nonzero;fill:rgb(100%,98.823529%,45.490196%);fill-opacity:1;" />
<path d="M 357.335938 211.097656 C 365.417969 203.011719 378.523438 203.011719 386.605469 211.097656 L 520.84375 345.335938 C 528.925781 353.417969 528.925781 366.523438 520.84375 374.605469 C 512.761719 382.691406 499.65625 382.691406 491.570312 374.605469 L 357.335938 240.367188 C 349.25 232.285156 349.25 219.179688 357.335938 211.097656 Z M 357.335938 211.097656 " style=" stroke:none;fill-rule:nonzero;fill:rgb(100%,63.921569%,0%);fill-opacity:1;" />
<path d="M 409.816406 123.277344 L 462.296875 228.242188 C 470.382812 236.328125 470.382812 249.433594 462.296875 257.515625 C 454.214844 265.597656 441.109375 265.597656 433.027344 257.515625 L 380.542969 152.550781 C 372.460938 144.46875 372.460938 131.363281 380.542969 123.277344 C 388.628906 115.195312 401.734375 115.195312 409.816406 123.277344 Z M 409.816406 123.277344 " style=" stroke:none;fill-rule:nonzero;fill:rgb(100%,98.823529%,45.490196%);fill-opacity:1;" />
<path d="M 123.152344 328.1875 C 131.238281 320.105469 144.34375 320.105469 152.425781 328.1875 L 315.9375 491.699219 C 324.019531 499.78125 324.019531 512.886719 315.9375 520.96875 C 307.851562 529.054688 294.746094 529.054688 286.664062 520.96875 L 123.152344 357.460938 C 115.070312 349.375 115.070312 336.269531 123.152344 328.1875 Z M 123.152344 328.1875 " style=" stroke:none;fill-rule:nonzero;fill:rgb(93.72549%,94.901961%,100%);fill-opacity:1;" />
<path d="M 64.609375 416.003906 C 72.691406 407.921875 85.796875 407.921875 93.878906 416.003906 L 228.117188 550.242188 C 236.199219 558.324219 236.199219 571.429688 228.117188 579.515625 C 220.035156 587.597656 206.929688 587.597656 198.84375 579.515625 L 64.609375 445.277344 C 56.523438 437.195312 56.523438 424.085938 64.609375 416.003906 Z M 64.609375 416.003906 " style=" stroke:none;fill-rule:nonzero;fill:rgb(93.72549%,94.901961%,100%);fill-opacity:1;" />
<path d="M 81.753906 550.242188 C 89.839844 542.160156 102.945312 542.160156 111.027344 550.242188 L 169.574219 608.789062 C 177.65625 616.871094 177.65625 629.976562 169.574219 638.058594 C 161.492188 646.144531 148.386719 646.144531 140.300781 638.058594 L 81.757812 579.515625 C 73.671875 571.433594 73.671875 558.328125 81.753906 550.242188 Z M 81.753906 550.242188 " style=" stroke:none;fill-rule:nonzero;fill:rgb(64.313725%,69.411765%,100%);fill-opacity:1;" />
</g>
</svg>